<svg xmlns="http://www.w3.org/2000/svg" xmlns:xlink="http://www.w3.org/1999/xlink" width="375" viewBox="0 0 375 375" height="375" version="1.0"><defs><g id="a"><path d="M 18.515625 0 L 10.234375 0 L 10.234375 -26.078125 L 0.96875 -26.078125 L 0.96875 -34.109375 L 27.78125 -34.109375 L 27.78125 -26.078125 L 18.515625 -26.078125 Z M 11.703125 -27.53125 L 11.703125 -1.46875 L 17.0625 -1.46875 L 17.0625 -27.53125 L 26.3125 -27.53125 L 26.3125 -32.65625 L 2.4375 -32.65625 L 2.4375 -27.53125 Z M 11.703125 -27.53125"/></g><g id="b"><path d="M 11.453125 0 L 3.171875 0 L 3.171875 -34.109375 L 11.453125 -34.109375 Z M 4.625 -32.65625 L 4.625 -1.46875 L 9.984375 -1.46875 L 9.984375 -32.65625 Z M 4.625 -32.65625"/></g><g id="c"><path d="M 26.796875 0 L 3.40625 0 L 3.40625 -34.109375 L 26.796875 -34.109375 L 26.796875 -26.5625 L 11.703125 -26.5625 L 11.703125 -20.71875 L 25.828125 -20.71875 L 25.828125 -13.40625 L 11.703125 -13.40625 L 11.703125 -7.546875 L 26.796875 -7.546875 Z M 4.875 -32.65625 L 4.875 -1.46875 L 25.34375 -1.46875 L 25.34375 -6.09375 L 10.234375 -6.09375 L 10.234375 -14.859375 L 24.375 -14.859375 L 24.375 -19.25 L 10.234375 -19.25 L 10.234375 -28.015625 L 25.34375 -28.015625 L 25.34375 -32.65625 Z M 4.875 -32.65625"/></g><g id="d"><path d="M 11.703125 0 L 3.40625 0 L 3.40625 -34.109375 L 13.15625 -34.109375 L 23.640625 -14.140625 L 24.125 -14.140625 L 24.125 -34.109375 L 32.40625 -34.109375 L 32.40625 0 L 22.65625 0 L 12.1875 -19.984375 L 11.703125 -19.984375 Z M 4.875 -32.65625 L 4.875 -1.46875 L 10.234375 -1.46875 L 10.234375 -21.4375 L 13.109375 -21.4375 L 23.59375 -1.46875 L 30.953125 -1.46875 L 30.953125 -32.65625 L 25.578125 -32.65625 L 25.578125 -12.671875 L 22.703125 -12.671875 L 12.234375 -32.65625 Z M 4.875 -32.65625"/></g><g id="e"><path d="M 3.40625 0 L 3.40625 -34.109375 L 16.078125 -34.109375 C 19.128906 -34.109375 21.921875 -33.359375 24.453125 -31.859375 C 26.992188 -30.367188 28.992188 -28.320312 30.453125 -25.71875 C 31.921875 -23.125 32.65625 -20.238281 32.65625 -17.0625 C 32.65625 -13.875 31.921875 -10.976562 30.453125 -8.375 C 28.992188 -5.78125 26.992188 -3.734375 24.453125 -2.234375 C 21.921875 -0.742188 19.128906 0 16.078125 0 Z M 16.078125 -1.46875 C 18.878906 -1.46875 21.429688 -2.148438 23.734375 -3.515625 C 26.035156 -4.878906 27.851562 -6.742188 29.1875 -9.109375 C 30.519531 -11.484375 31.1875 -14.132812 31.1875 -17.0625 C 31.1875 -19.976562 30.519531 -22.625 29.1875 -25 C 27.851562 -27.375 26.035156 -29.242188 23.734375 -30.609375 C 21.429688 -31.972656 18.878906 -32.65625 16.078125 -32.65625 L 4.875 -32.65625 L 4.875 -1.46875 Z M 10.234375 -6.578125 L 10.234375 -27.53125 L 16.078125 -27.53125 C 17.867188 -27.53125 19.507812 -27.082031 21 -26.1875 C 22.5 -25.300781 23.675781 -24.0625 24.53125 -22.46875 C 25.394531 -20.875 25.828125 -19.070312 25.828125 -17.0625 C 25.828125 -15.039062 25.394531 -13.234375 24.53125 -11.640625 C 23.675781 -10.054688 22.5 -8.816406 21 -7.921875 C 19.507812 -7.023438 17.867188 -6.578125 16.078125 -6.578125 Z M 16.078125 -8.046875 C 17.609375 -8.046875 19.003906 -8.425781 20.265625 -9.1875 C 21.535156 -9.945312 22.535156 -11.015625 23.265625 -12.390625 C 24.003906 -13.773438 24.375 -15.332031 24.375 -17.0625 C 24.375 -18.78125 24.003906 -20.328125 23.265625 -21.703125 C 22.535156 -23.085938 21.535156 -24.160156 20.265625 -24.921875 C 19.003906 -25.691406 17.609375 -26.078125 16.078125 -26.078125 L 11.703125 -26.078125 L 11.703125 -8.046875 Z M 16.078125 -8.046875"/></g><g id="f"><path d="M 8.765625 0 L -0.25 0 L 11.453125 -34.109375 L 22.65625 -34.109375 L 34.359375 0 L 25.34375 0 L 23.25 -6.578125 L 10.875 -6.578125 Z M 12.46875 -32.65625 L 1.796875 -1.46875 L 7.703125 -1.46875 L 9.796875 -8.046875 L 24.3125 -8.046875 L 26.40625 -1.46875 L 32.3125 -1.46875 L 21.640625 -32.65625 Z M 22.90625 -12.421875 L 11.203125 -12.421875 L 15.84375 -26.796875 L 18.28125 -26.796875 Z M 16.90625 -25.34375 L 13.203125 -13.890625 L 20.90625 -13.890625 L 17.203125 -25.34375 Z M 16.90625 -25.34375"/></g><g id="g"><path d="M 36.328125 -17.453125 C 36.328125 -11.597656 34.890625 -7.144531 32.015625 -4.09375 C 29.140625 -1.050781 24.9375 0.46875 19.40625 0.46875 C 13.945312 0.46875 9.757812 -1.0625 6.84375 -4.125 C 3.925781 -7.1875 2.46875 -11.644531 2.46875 -17.5 C 2.46875 -23.289062 3.914062 -27.710938 6.8125 -30.765625 C 9.707031 -33.816406 13.921875 -35.34375 19.453125 -35.34375 C 24.984375 -35.34375 29.175781 -33.828125 32.03125 -30.796875 C 34.894531 -27.765625 36.328125 -23.316406 36.328125 -17.453125 Z M 12.375 -17.453125 C 12.375 -10.722656 14.71875 -7.359375 19.40625 -7.359375 C 21.78125 -7.359375 23.539062 -8.175781 24.6875 -9.8125 C 25.84375 -11.445312 26.421875 -13.992188 26.421875 -17.453125 C 26.421875 -20.921875 25.835938 -23.484375 24.671875 -25.140625 C 23.503906 -26.804688 21.765625 -27.640625 19.453125 -27.640625 C 14.734375 -27.640625 12.375 -24.242188 12.375 -17.453125 Z M 12.375 -17.453125"/></g><g id="h"><path d="M 36.890625 0 L 24.5625 0 L 11.859375 -24.515625 L 11.640625 -24.515625 C 11.941406 -20.660156 12.09375 -17.71875 12.09375 -15.6875 L 12.09375 0 L 3.765625 0 L 3.765625 -34.796875 L 16.046875 -34.796875 L 28.703125 -10.609375 L 28.84375 -10.609375 C 28.625 -14.117188 28.515625 -16.9375 28.515625 -19.0625 L 28.515625 -34.796875 L 36.890625 -34.796875 Z M 36.890625 0"/></g><g id="i"><path d="M 13.015625 0 L 3.765625 0 L 3.765625 -34.796875 L 24.328125 -34.796875 L 24.328125 -27.25 L 13.015625 -27.25 L 13.015625 -20.609375 L 23.453125 -20.609375 L 23.453125 -13.0625 L 13.015625 -13.0625 Z M 13.015625 0"/></g><g id="j"><path d="M 3.765625 0 L 3.765625 -34.796875 L 13.21875 -34.796875 L 13.21875 0 Z M 3.765625 0"/></g><g id="k"><path d="M 13.15625 -12.65625 L 13.15625 0 L 3.765625 0 L 3.765625 -34.796875 L 15.15625 -34.796875 C 24.613281 -34.796875 29.34375 -31.367188 29.34375 -24.515625 C 29.34375 -20.484375 27.378906 -17.363281 23.453125 -15.15625 L 33.59375 0 L 22.921875 0 L 15.546875 -12.65625 Z M 13.15625 -19.734375 L 14.921875 -19.734375 C 18.210938 -19.734375 19.859375 -21.1875 19.859375 -24.09375 C 19.859375 -26.488281 18.242188 -27.6875 15.015625 -27.6875 L 13.15625 -27.6875 Z M 13.15625 -19.734375"/></g><g id="l"><path d="M 24.421875 0 L 3.765625 0 L 3.765625 -34.796875 L 24.421875 -34.796875 L 24.421875 -27.25 L 13.15625 -27.25 L 13.15625 -21.78125 L 23.59375 -21.78125 L 23.59375 -14.234375 L 13.15625 -14.234375 L 13.15625 -7.671875 L 24.421875 -7.671875 Z M 24.421875 0"/></g></defs><g fill="#C4A178"><use x=".938" y="204.85" xmlns:xlink="http://www.w3.org/1999/xlink" xlink:href="#a" xlink:type="simple" xlink:actuate="onLoad" xlink:show="embed"/></g><g fill="#C4A178"><use x="29.686" y="204.85" xmlns:xlink="http://www.w3.org/1999/xlink" xlink:href="#b" xlink:type="simple" xlink:actuate="onLoad" xlink:show="embed"/></g><g fill="#C4A178"><use x="44.304" y="204.85" xmlns:xlink="http://www.w3.org/1999/xlink" xlink:href="#c" xlink:type="simple" xlink:actuate="onLoad" xlink:show="embed"/></g><g fill="#C4A178"><use x="73.54" y="204.85" xmlns:xlink="http://www.w3.org/1999/xlink" xlink:href="#d" xlink:type="simple" xlink:actuate="onLoad" xlink:show="embed"/></g><g fill="#C4A178"><use x="109.354" y="204.85" xmlns:xlink="http://www.w3.org/1999/xlink" xlink:href="#e" xlink:type="simple" xlink:actuate="onLoad" xlink:show="embed"/></g><g fill="#C4A178"><use x="143.95" y="204.85" xmlns:xlink="http://www.w3.org/1999/xlink" xlink:href="#f" xlink:type="simple" xlink:actuate="onLoad" xlink:show="embed"/></g><g fill="#C4A178"><use x="191.533" y="205.574" xmlns:xlink="http://www.w3.org/1999/xlink" xlink:href="#g" xlink:type="simple" xlink:actuate="onLoad" xlink:show="embed"/><use x="230.38" y="205.574" xmlns:xlink="http://www.w3.org/1999/xlink" xlink:href="#h" xlink:type="simple" xlink:actuate="onLoad" xlink:show="embed"/><use x="271.037" y="205.574" xmlns:xlink="http://www.w3.org/1999/xlink" xlink:href="#i" xlink:type="simple" xlink:actuate="onLoad" xlink:show="embed"/><use x="297.316" y="205.574" xmlns:xlink="http://www.w3.org/1999/xlink" xlink:href="#j" xlink:type="simple" xlink:actuate="onLoad" xlink:show="embed"/><use x="314.288" y="205.574" xmlns:xlink="http://www.w3.org/1999/xlink" xlink:href="#k" xlink:type="simple" xlink:actuate="onLoad" xlink:show="embed"/><use x="347.28" y="205.574" xmlns:xlink="http://www.w3.org/1999/xlink" xlink:href="#l" xlink:type="simple" xlink:actuate="onLoad" xlink:show="embed"/></g></svg>